<svg width="32" height="32" viewBox="0 0 32 32" fill="none" xmlns="http://www.w3.org/2000/svg">
<path d="M9.99967 13.3333C9.99967 12.9653 10.2983 12.6667 10.6663 12.6667H21.333C21.701 12.6667 21.9997 12.9653 21.9997 13.3333C21.9997 13.7013 21.701 14 21.333 14H10.6663C10.2983 14 9.99967 13.7013 9.99967 13.3333ZM11.9997 9.99999H19.9997C20.3677 9.99999 20.6663 9.70132 20.6663 9.33332C20.6663 8.96532 20.3677 8.66666 19.9997 8.66666H11.9997C11.6317 8.66666 11.333 8.96532 11.333 9.33332C11.333 9.70132 11.6317 9.99999 11.9997 9.99999ZM28.6663 17.9827V21.3333C28.6663 24.6413 25.9743 27.3333 22.6663 27.3333H9.33301C6.02501 27.3333 3.33301 24.6413 3.33301 21.3333V17.9827C3.33301 17.48 3.41433 16.9827 3.573 16.5067L6.15299 8.76936C6.97033 6.31603 9.2583 4.66666 11.845 4.66666H20.157C22.7436 4.66666 25.0304 6.31469 25.849 8.76936L28.429 16.5067C28.585 16.9827 28.6663 17.48 28.6663 17.9827ZM4.92367 16.6667H11.9997C12.3677 16.6667 12.6663 16.9653 12.6663 17.3333C12.6663 19.1707 14.1623 20.6667 15.9997 20.6667C17.837 20.6667 19.333 19.1707 19.333 17.3333C19.333 16.9653 19.6317 16.6667 19.9997 16.6667H27.0757L24.5837 9.19066C23.9463 7.28133 22.1676 5.99999 20.157 5.99999H11.845C9.83297 5.99999 8.05438 7.28133 7.41838 9.19066L4.92367 16.6667ZM27.333 21.3333V18H20.6183C20.2943 20.2587 18.3463 22 15.9997 22C13.653 22 11.705 20.2587 11.381 18H4.66634V21.3333C4.66634 23.9067 6.75967 26 9.33301 26H22.6663C25.2397 26 27.333 23.9053 27.333 21.3333Z" fill="#10CAFF"/>
</svg>
