<svg width="32" height="32" viewBox="0 0 32 32" fill="none" xmlns="http://www.w3.org/2000/svg">
<path d="M15.8778 16.6667C19.1607 16.6667 21.8322 13.9747 21.8322 10.6667C21.8322 7.35866 19.1607 4.66666 15.8778 4.66666C12.595 4.66666 9.92352 7.35866 9.92352 10.6667C9.92352 13.9747 12.595 16.6667 15.8778 16.6667ZM15.8778 5.99999C18.4316 5.99999 20.509 8.09332 20.509 10.6667C20.509 13.24 18.4316 15.3333 15.8778 15.3333C13.3241 15.3333 11.2467 13.24 11.2467 10.6667C11.2467 8.09332 13.3241 5.99999 15.8778 5.99999ZM24.4785 23.2V24.3546C24.4785 25.3746 24.1094 26.3533 23.4372 27.1107C23.3049 27.2573 23.1249 27.3333 22.9437 27.3333C22.7862 27.3333 22.6287 27.2773 22.503 27.164C22.2305 26.9186 22.2066 26.4973 22.4501 26.2226C22.9052 25.7106 23.1553 25.048 23.1553 24.356V23.2C23.1553 21.3826 21.9578 19.8093 20.2417 19.3747C19.9082 19.288 19.5484 19.336 19.2573 19.504C17.1613 20.6786 14.589 20.6747 12.505 19.5067C12.2073 19.336 11.8514 19.2867 11.514 19.3733C9.79786 19.808 8.60034 21.3813 8.60034 23.1986V24.3533C8.60034 25.0453 8.85045 25.708 9.30562 26.22C9.54909 26.4946 9.52522 26.916 9.25264 27.1613C8.98272 27.4053 8.56328 27.384 8.31849 27.1093C7.64631 26.352 7.27716 25.3733 7.27716 24.3533V23.2C7.27716 20.7706 8.88748 18.6653 11.1911 18.0813C11.8554 17.912 12.5686 18.0093 13.1548 18.3453C14.8325 19.2867 16.9166 19.2893 18.6063 18.3426C19.1858 18.0093 19.9017 17.9147 20.5632 18.0827C22.8682 18.6653 24.4785 20.7706 24.4785 23.2ZM23.1924 5.33865C23.3155 4.99065 23.6925 4.81333 24.0379 4.932C25.885 5.58933 27.1249 7.35866 27.1249 9.33332C27.1249 10.66 26.5625 11.9267 25.5807 12.8107C25.455 12.924 25.2976 12.98 25.1401 12.98C24.9588 12.98 24.7776 12.9053 24.6466 12.7573C24.4031 12.4826 24.4269 12.0613 24.6995 11.816C25.3994 11.184 25.8017 10.2786 25.8017 9.33198C25.8017 7.92131 24.9152 6.65865 23.596 6.18932C23.2519 6.06665 23.072 5.68532 23.1924 5.33865ZM28.4481 19.7773V20.74C28.4481 21.108 28.1517 21.4066 27.7865 21.4066C27.4213 21.4066 27.1249 21.108 27.1249 20.74V19.7773C27.1249 18.3133 26.1603 17.0467 24.7802 16.6973C24.4256 16.608 24.2112 16.2453 24.2999 15.8893C24.3898 15.532 24.7431 15.3133 25.103 15.4053C27.0719 15.9026 28.4481 17.7013 28.4481 19.7773ZM6.17494 13.4027C5.19446 12.5173 4.6308 11.2507 4.6308 9.92532C4.6308 7.95066 5.87195 6.18133 7.71779 5.524C8.06314 5.404 8.43889 5.58265 8.56327 5.93065C8.68501 6.27732 8.50374 6.65865 8.15971 6.78132C6.8405 7.25065 5.95398 8.51331 5.95398 9.92398C5.95398 10.8706 6.35624 11.776 7.0562 12.408C7.32878 12.6533 7.35256 13.0746 7.1091 13.3493C6.97678 13.496 6.79685 13.572 6.61557 13.572C6.45811 13.5733 6.30064 13.5173 6.17494 13.4027ZM6.97544 17.2906C5.59536 17.64 4.6308 18.9067 4.6308 20.3707V21.3333C4.6308 21.7013 4.33441 22 3.96921 22C3.60401 22 3.30762 21.7013 3.30762 21.3333V20.3707C3.30762 18.2947 4.68375 16.496 6.65264 15.9973C7.0099 15.9066 7.36583 16.1253 7.4558 16.4813C7.54446 16.8386 7.33005 17.2 6.97544 17.2906Z" fill="#FFF7FF"/>
</svg>
